<svg width="52" height="50" viewBox="0 0 52 50" fill="none" xmlns="http://www.w3.org/2000/svg">
<path d="M44.8889 0.888916H7.11112C5.34302 0.888916 3.64732 1.5913 2.39708 2.84154C1.14684 4.09178 0.444458 5.78747 0.444458 7.55558V34.2222C0.444458 35.9904 1.14684 37.6861 2.39708 38.9363C3.64732 40.1865 5.34302 40.8889 7.11112 40.8889H37.2222L47.8445 49.1334C48.1602 49.3668 48.5322 49.5124 48.9226 49.5554C49.3129 49.5983 49.7077 49.537 50.0667 49.3778C50.4448 49.1977 50.7644 48.9144 50.9885 48.5605C51.2126 48.2067 51.3322 47.7967 51.3334 47.3778V7.55558C51.3343 5.82531 50.6625 4.16244 49.4599 2.9184C48.2574 1.67435 46.6182 0.946592 44.8889 0.888916Z" fill="#4CC9F0"/>
</svg>
