<svg version="1.0" xmlns="http://www.w3.org/2000/svg" width="4167.000000pt" height="4167.000000pt" viewBox="0 0 4167.000000 4167.000000" preserveAspectRatio="xMidYMid meet">
<g transform="translate(0.000000,4167.000000) scale(0.100000,-0.100000)"
fill="#000000" stroke="none">
<path d="M11678 24989 c-373 -29 -758 -179 -1073 -417 -88 -67 -268 -245 -340
-337 -262 -334 -407 -713 -435 -1136 -7 -104 -10 -2138 -8 -6269 3 -5803 4
-6118 21 -6175 64 -220 219 -391 420 -463 64 -24 87 -26 212 -27 153 0 195 9
308 65 34 17 853 614 1821 1326 l1758 1294 4652 0 c4106 0 4663 2 4751 15 733
111 1344 659 1526 1368 51 201 51 202 56 769 l4 538 -3863 3 c-4219 3 -3902
-1 -4243 58 -551 94 -1100 312 -1565 622 -449 300 -845 699 -1143 1152 -384
585 -605 1243 -657 1960 -6 90 -10 1135 -10 2903 l0 2762 -1042 -1 c-574 -1
-1091 -6 -1150 -10z"/>
</g>
</svg>
